<?xml version="1.0" encoding="UTF-8" standalone="no"?> <svg id="Layer_1" data-name="Layer 1" xmlns="http://www.w3.org/2000/svg" viewBox="0 0 64 64"><defs><style>.cls-1{fill:#edd6ca;}.cls-2{fill:#1b3f15;}.cls-3{fill:#fff;}.cls-4{fill:#f7e9e4;}.cls-5{fill:#b31919;}.cls-6{fill:#1f6817;}.cls-7{fill:#8e1717;}</style></defs><path class="cls-1" d="M57,3H32.7c-3.6,0-5.552,3.416-4.721,6.642a79.088,79.088,0,0,0,5.964,16.612,55.533,55.533,0,0,0,3.7,6.111l1.449-1.449a2,2,0,0,1,2.126-.455l13.01,4.956A5,5,0,0,0,61,30.745V7A4,4,0,0,0,57,3Z"/><path class="cls-2" d="M43.9,25.413a16,16,0,0,1,2.166-.047,1,1,0,0,1-.136,2A23.805,23.805,0,0,0,35.117,29.9a1,1,0,0,1-.877-1.8A27.2,27.2,0,0,1,43.9,25.413Z"/><path class="cls-2" d="M33.093,20.422A15.976,15.976,0,0,1,30.93,20.3a1,1,0,0,1,.292-1.979,23.823,23.823,0,0,0,10.983-1.679,1,1,0,1,1,.732,1.861A27.2,27.2,0,0,1,33.093,20.422Z"/><path class="cls-3" d="M7.8,46.6A8.487,8.487,0,0,0,3,49a11.991,11.991,0,0,1,10.9,7.012L19,45Z"/><path class="cls-4" d="M13.9,56.012A11.935,11.935,0,0,1,15,61a8.487,8.487,0,0,0,2.4-4.8L19,45Z"/><path class="cls-1" d="M3,49A12,12,0,0,0,15,61,12,12,0,0,0,3,49Z"/><path class="cls-5" d="M54.967,21.871a3.013,3.013,0,0,0-1.19.685,3,3,0,0,0-.069-1.371A3.042,3.042,0,1,0,47.871,22.9a3.006,3.006,0,0,0,.685,1.19,3.042,3.042,0,1,0,1.535,5.222,3.042,3.042,0,1,0,5.222-1.536,3,3,0,0,0,1.371-.069,3.042,3.042,0,1,0-1.717-5.837Z"/><path d="M51.422,24.193a1.815,1.815,0,1,0,2.254,1.229A1.814,1.814,0,0,0,51.422,24.193Z"/><path class="cls-6" d="M34.961,15.831A9.836,9.836,0,0,0,34.6,6.369L34.377,6a9.419,9.419,0,0,0,0,11Z"/><path class="cls-6" d="M34.081,20.2,33.65,20.2A9.419,9.419,0,0,0,43,25.993l-.686-1.113A9.839,9.839,0,0,0,34.081,20.2Z"/><path class="cls-5" d="M9.038,30.962,4.962,35.038a2,2,0,0,0,.52,3.2L19,45,12.241,31.482A2,2,0,0,0,9.038,30.962Z"/><path class="cls-5" d="M28.962,59.038l4.076-4.076a2,2,0,0,0-.52-3.2L19,45l6.759,13.518A2,2,0,0,0,28.962,59.038Z"/><path class="cls-3" d="M54.22,35.417,41.21,30.461a2,2,0,0,0-2.126.455l-1.456,1.456L19,45l11.341,1.173a33.512,33.512,0,0,0,29.09-11.756l.2-.232.078-.11A4.971,4.971,0,0,1,54.22,35.417Z"/><path class="cls-3" d="M59.705,34.075A4.961,4.961,0,0,0,60.468,33Z"/><path class="cls-3" d="M30,3.779a5.384,5.384,0,0,0-2.025,5.863,79.088,79.088,0,0,0,5.964,16.612,55.759,55.759,0,0,0,7.628,11.152,2,2,0,0,1-1.09,3.3L19,45,17.787,33.279a33.517,33.517,0,0,1,11.3-28.7h0"/><path class="cls-4" d="M45.939,38.89a61.294,61.294,0,0,1-6.18-8.4,1.956,1.956,0,0,0-.675.423l-1.449,1.449a55.822,55.822,0,0,0,3.932,5.041,2,2,0,0,1-1.09,3.3L19,45l5.22.54,20.523-3.032A2.195,2.195,0,0,0,45.939,38.89Z"/><path class="cls-7" d="M18.422,43.844l-3.208-2.026c-.475-.3-.971-.543-1.466-.793a11.954,11.954,0,0,1-6.165-8.608L4.962,35.038a2,2,0,0,0,.52,3.2L19,45Z"/><path class="cls-7" d="M25.759,58.518a2,2,0,0,0,3.2.52l4.076-4.076a1.983,1.983,0,0,0,.463-.744,8.875,8.875,0,0,1-10.485-3.406c-.263-.4-.522-.8-.822-1.169l-2.278-2.811Z"/><path class="cls-5" d="M49.429,17.571a3.4,3.4,0,0,0-.362-1.5,3.429,3.429,0,1,0,0-6.134,3.429,3.429,0,1,0-6.134,0,3.429,3.429,0,1,0,0,6.134,3.423,3.423,0,1,0,6.5,1.5Z"/><circle cx="46" cy="13" r="2"/><path class="cls-3" d="M56,18a1,1,0,0,1,0-2,1,1,0,0,0,1-1,1,1,0,0,1,2,0A3,3,0,0,1,56,18Z"/><path class="cls-3" d="M57,8a1,1,0,0,1-.707-.293,1.831,1.831,0,0,0-2.586,0,1,1,0,0,1-1.414-1.414,3.832,3.832,0,0,1,5.414,0A1,1,0,0,1,57,8Z"/><path class="cls-4" d="M21,34a1,1,0,0,1-.991-.876,19.144,19.144,0,0,1,3.211-13.749,1,1,0,0,1,1.563,1.248,17.47,17.47,0,0,0-2.79,12.253,1,1,0,0,1-.868,1.116A.884.884,0,0,1,21,34Z"/></svg>