<?xml version="1.0" encoding="utf-8"?>
<!-- Generator: Adobe Illustrator 24.0.2, SVG Export Plug-In . SVG Version: 6.00 Build 0)  -->
<svg version="1.1" xmlns="http://www.w3.org/2000/svg" xmlns:xlink="http://www.w3.org/1999/xlink" x="0px" y="0px"
	 viewBox="0 0 512 512" style="enable-background:new 0 0 512 512;" xml:space="preserve">
<style type="text/css">
	.st0{fill-rule:evenodd;clip-rule:evenodd;fill:#FFD8CF;}
	.st1{fill:#7D5351;}
	.st2{fill:#926666;}
</style>
<g id="Layer_1">
	<g transform="matrix(1,0,0,1,274.652,265.67)">
		<circle class="st0" cx="-18.5633" cy="-9.9601" r="250.0002"/>
	</g>
</g>
<g id="Layer_2">
	<g>
		<path class="st1" d="M386.9615,113.483c-3.2361,17.6385-9.8926,34.6455-18.5961,50.4103
			c-8.8231,15.7184-19.4286,30.4364-31.5993,43.6609c-12.1388,13.2709-25.5143,25.2229-38.7184,37.2601
			c-13.3321,11.9099-26.7196,23.7388-39.8586,35.8229c-13.0963,12.1307-26.1324,24.2834-38.673,36.8708
			c-12.4847,12.6369-24.2445,25.9357-34.868,40.0441c-10.649,14.0714-20.0863,29.1149-27.2699,45.2412
			c-3.5009,8.048-6.4667,16.3858-7.7587,25.0616c-1.331,8.6286-1.0249,17.6392,2.0645,26.0123l-0.5013,0.2144
			c-3.9844-8.1112-5.1244-17.5154-4.3027-26.5509c0.8442-9.0732,3.2445-17.9464,6.5604-26.3744
			c6.718-16.7951,15.7821-32.5915,26.543-47.0797c21.6424-28.9996,48.7087-53.0172,76.2421-75.689
			c13.7324-11.4304,27.6185-22.6674,40.5446-34.964c13.0713-12.1334,25.1548-25.295,36.5817-38.8613
			c23.1709-26.7798,42.8333-56.8861,53.0793-91.2053L386.9615,113.483z"/>
		<path class="st2" d="M373.5496,131.4884c-1.8211,0.0241-3.7494-0.6319-4.8098-2.1124c-1.0601-1.4802-0.9066-3.8455,0.6073-4.8566
			c-2.2402-1.6472-4.7599-4.2657-3.5639-6.7761c0.595-1.2497,1.9888-1.9891,2.5287-3.2637c0.9385-2.2161-0.8736-5.469,1.0952-6.8533
			c0.9826-0.6906,2.4453-0.4059,3.3646-1.1782c0.9348-0.7861,0.8495-2.2435,1.4188-3.3239
			c1.1893-2.2556,4.5492-1.9903,6.8369-0.8655c0.5494,0.2701,1.1188,0.5784,1.7295,0.5463
			c1.0001-0.0521,1.6975-0.9595,2.4623-1.6047c2.7893-2.3523,7.8246-0.7872,8.789,2.7312c1.9702-0.8001,4.3676-0.4279,6.0021,0.9322
			c1.6342,1.3604,2.4361,3.6503,2.0067,5.7328c2.6679-0.2429,5.418,1.1656,6.7798,3.4725c1.3615,2.3071,1.2651,5.3955-0.2372,7.6129
			c1.7812,1.6955,2.4857,4.4353,1.7432,6.7792c-0.7423,2.3443-2.896,4.1783-5.3278,4.5388
			c-0.3372,2.9263-0.972,6.3085-3.5807,7.6757c-1.0949,0.5736-2.3676,0.6761-3.6,0.7677c-3.66,0.2718-7.7042,0.4336-10.5822-1.8429
			c-0.6038-0.4781-1.1495-1.0599-1.8627-1.3506c-0.807-0.3281-1.713-0.2377-2.5805-0.3154
			c-3.4589-0.3094-6.0513-3.2093-8.1335-5.9882"/>
		<g>
			<g>
				<path class="st1" d="M354.7614,184.1147c8.0577-6.9914,11.0576-16.337,22.4178-18.5149
					c13.0624-2.5042,28.9101,8.3439,40.9166,0.8486c0.5433-0.3391,2.2839-0.0804,1.4149,0.7509
					c-7.825,7.4864-15.4858,16.7943-26.0731,20.3566c-4.0883,1.3755-8.351,1.9242-12.6394,1.2949
					c-9.8111-1.4401-12.9612-9.1591-25.6579-4.3495c-0.3929,0.1491-0.8231-0.2315-0.3411-0.4714
					c8.0191-3.9964,11.9204-2.2467,19.7508,1.0183c10.0956,4.2098,20.2614,1.6346,28.7115-4.7559
					c1.7354-1.3123,11.6772-12.3891,13.8401-11.5272c-0.8986-0.3579-6.093,1.5997-7.5469,1.6423
					c-5.5846,0.1628-11.1016-1.8734-16.5061-2.9431c-9.9907-1.9776-19.6349-1.9525-27.4263,5.6987
					c-3.7755,3.7078-5.9539,8.2084-10.4437,11.2531C354.9242,184.5892,354.431,184.401,354.7614,184.1147L354.7614,184.1147z"/>
			</g>
			<g>
				<path class="st1" d="M357.4735,182.9998c5.8461-6.5338,13.128-10.776,21.8573-12.1125
					c14.3315-2.1939,26.3824,4.3007,39.7962-4.4461c0.1327-0.0867,0.3841,0.0019,0.2162,0.1563
					c-6.3135,5.8065-9.8874,6.8376-18.38,6.1123c-16.5539-1.4146-30.412-1.7837-43.4025,10.3362
					C357.526,183.0786,357.4274,183.0511,357.4735,182.9998L357.4735,182.9998z"/>
			</g>
		</g>
		<g>
			<g>
				<path class="st1" d="M320.4082,224.089c0.6258-4.7818,2.9086-8.3435,4.8205-12.7192
					c3.6428-8.3357,2.4171-15.7979-2.1941-23.4022c-0.8401-1.3857-18.634-24.6953-15.5409-25.6115
					c0.3863-0.1144-3.9256,15.9967-4.2049,17.6295c-1.3521,7.905-0.2415,16.2227,4.6528,22.7922
					c6.3498,8.5236,13.5474,9.3015,13.1732,21.2668c-0.0093,0.3123-0.7353,0.4673-0.7719,0.1248
					c-0.5092-4.7718-1.5051-9.5797-5.2516-13.0744c-2.0729-1.9341-4.9995-2.8548-7.1023-4.8445
					c-3.4817-3.2948-5.6558-7.6468-6.7204-12.2764c-2.7324-11.8835,2.9495-23.9421,6.5423-35.0029
					c0.2291-0.7044,1.9262-0.874,1.8545,0.0649c-1.0987,14.3664,13.8486,22.6622,17.9713,35.4697
					c3.7761,11.7305-3.4898,18.6675-6.5923,29.5434C320.9705,224.3073,320.3627,224.4372,320.4082,224.089L320.4082,224.089z"/>
			</g>
			<g>
				<path class="st1" d="M320.6871,221.2201c4.9454-16.6281-0.9518-28.8145-9.2569-42.864
					c-4.4972-7.6079-5.4785-11.4156-2.7527-19.9099c0.0389-0.1216,0.3374-0.151,0.3207,0.0111
					c-0.8228,7.8649-0.3535,12.2027,3.7151,19.2804c2.7386,4.7636,6.0015,9.3844,8.1851,14.4477
					c4.1458,9.6124,3.8653,19.482-0.1001,29.0504C320.7779,221.2845,320.6674,221.2861,320.6871,221.2201L320.6871,221.2201z"/>
			</g>
		</g>
		<g>
			<path class="st2" d="M337.5392,144.8463c-0.2376,1.2477-0.9539,2.4747-2.1139,2.9934c-1.1596,0.5185-2.7549,0.0841-3.235-1.0917
				c-1.438,1.3023-3.5784,2.6596-5.1285,1.4927c-0.7713-0.5809-1.0827-1.6365-1.8787-2.1829
				c-1.3838-0.9502-3.8594-0.1649-4.5317-1.7033c-0.3353-0.7681,0.0633-1.7281-0.3371-2.464
				c-0.4067-0.7489-1.415-0.8933-2.0745-1.4332c-1.3757-1.1265-0.7265-3.3865,0.3607-4.7932
				c0.2614-0.3382,0.5514-0.6848,0.6146-1.1068c0.1035-0.6904-0.4194-1.2934-0.7541-1.9064
				c-1.2195-2.234,0.5516-5.458,3.0914-5.6271c-0.2732-1.4582,0.3155-3.0453,1.473-3.9729
				c1.1572-0.9279,2.8342-1.1571,4.1979-0.5736c0.2052-1.8575,1.5513-3.5408,3.3178-4.1503
				c1.7668-0.6092,3.8639-0.1138,5.1707,1.2222c1.4071-0.9814,3.3777-1.0813,4.8763-0.2473
				c1.4991,0.8341,2.4534,2.561,2.3608,4.2742c1.9532,0.6377,4.1766,1.5424,4.7476,3.5162c0.24,0.8285,0.1327,1.7125,0.0239,2.5678
				c-0.3242,2.5396-0.7768,5.3262-2.7341,6.9765c-0.4103,0.3466-0.8842,0.6382-1.1824,1.0856
				c-0.3363,0.5055-0.4009,1.1376-0.5751,1.72c-0.6931,2.3205-3.0364,3.6888-5.2258,4.7254"/>
			<path class="st2" d="M336.9435,169.0652c0.3961,0.7517,0.5323,1.6926,0.1418,2.4473c-0.3905,0.7547-1.4065,1.1924-2.148,0.7774
				c-0.2092,1.2807-0.7635,2.8831-2.0606,2.9186c-0.6456,0.0178-1.2487-0.405-1.8933-0.359
				c-1.1201,0.0794-2.0881,1.5228-3.0808,0.9979c-0.4953-0.2618-0.6874-0.9305-1.2038-1.1488
				c-0.5244-0.222-1.1126,0.1225-1.6823,0.1151c-1.1895-0.016-1.792-1.4689-1.8097-2.6584
				c-0.0041-0.2856,0.0034-0.5879-0.1397-0.8351c-0.2336-0.4046-0.7588-0.502-1.1895-0.6832
				c-1.5689-0.6607-1.9863-3.0862-0.7281-4.2328c-0.7505-0.6494-1.1041-1.7251-0.8853-2.6929
				c0.2185-0.9681,1.0009-1.7866,1.9576-2.0499c-0.6671-1.0577-0.6647-2.4997,0.0056-3.5546
				c0.6706-1.0552,1.975-1.6703,3.2153-1.516c0.3268-1.0998,1.3164-1.9736,2.4481-2.1621c1.132-0.1882,2.3513,0.3174,3.0168,1.2525
				c1.2878-0.4805,2.8284-0.9338,3.95-0.1394c0.4709,0.3334,0.783,0.8404,1.0828,1.3336c0.8892,1.4637,1.814,3.1104,1.4779,4.7899
				c-0.0707,0.3525-0.1971,0.7023-0.1662,1.0608c0.0345,0.405,0.2642,0.7628,0.4159,1.1397
				c0.6049,1.5036-0.0509,3.1959-0.7646,4.6511"/>
			<g>
				<path class="st1" d="M334.1819,137.6536c21.0671,4.5669,29.5185,34.9587,16.4091,51.0192
					c-0.3607,0.4422-1.8263,0.4664-1.4295-0.3576c7.937-16.4811,5.224-43.9895-15.2664-50.2155
					C333.5442,137.9933,333.933,137.5998,334.1819,137.6536L334.1819,137.6536z"/>
			</g>
			<g>
				<path class="st1" d="M334.9691,163.4945c7.1519-1.2192,17.0389-1.4274,21.0331,5.9776
					c0.1921,0.3564-0.4488,0.6593-0.6998,0.4258c-5.8979-5.4906-12.4245-6.9032-20.3196-6.2004
					C334.8243,163.7113,334.822,163.5197,334.9691,163.4945L334.9691,163.4945z"/>
			</g>
		</g>
		<g>
			<g>
				<path class="st1" d="M268.3565,270.9212c9.4022-4.0552,14.8303-11.7766,25.7916-11.1253
					c14.2425,0.846,25.6027,16.4127,40.2023,13.1047c0.935-0.2119,1.6163,0.7397,0.5936,1.2469
					c-9.3359,4.6296-18.9612,10.8699-29.6336,11.5363c-4.0334,0.2522-8.0176-0.2056-11.8011-1.6668
					c-9.0557-3.4981-13.0987-13.2712-25.0462-12.6136c-0.5316,0.0295-0.3571-0.5231,0.0665-0.5783
					c11.0524-1.4474,12.9016,3.673,21.4665,9.1282c10.8867,6.9342,22.7908,3.5427,33.3006-1.5681
					c1.4628-0.7112,6.4211-2.2337,7.2114-3.5907c0.3591-0.6158,2.8098,1.5545-0.8069,0.1713
					c-2.4906-0.9529-5.5549-0.8158-8.2087-1.9259c-4.6469-1.9439-8.8253-5.0123-13.2826-7.3097
					c-4.611-2.3762-7.4677-3.5333-12.6737-4.2684c-7.3758-1.0409-12.4494,2.2302-18.6869,5.7518
					c-2.8568,1.6128-5.0959,3.1489-8.2946,4.1232C268.2442,271.4314,268.0139,271.0692,268.3565,270.9212L268.3565,270.9212z"/>
			</g>
			<g>
				<path class="st1" d="M271.2789,270.6498c7.4228-4.3365,15.3838-6.2996,23.9958-5.1294
					c14.3685,1.9529,24.6332,12.0599,39.8244,7.7215c0.1617-0.0463,0.2783,0.1341,0.1026,0.2156
					c-7.2786,3.3758-10.8711,3.7916-18.4346,0.8007c-15.9299-6.2997-28.6678-11.5588-45.4366-3.5367
					C271.2703,270.7501,271.2104,270.6897,271.2789,270.6498L271.2789,270.6498z"/>
			</g>
		</g>
		<g>
			<path class="st2" d="M263.6254,228.2892c-0.5995,1.1201-1.6494,2.077-2.9111,2.226c-1.2612,0.149-2.6548-0.7415-2.7619-2.0072
				c-1.7608,0.8136-4.2089,1.4703-5.34-0.1061c-0.5626-0.7847-0.5448-1.885-1.1416-2.6444c-1.037-1.3197-3.6347-1.3092-3.8169-2.978
				c-0.0908-0.8328,0.576-1.6306,0.4141-2.4523c-0.1651-0.8359-1.0843-1.2748-1.5526-1.9866
				c-0.9766-1.4856,0.3172-3.4487,1.775-4.4674c0.3499-0.2445,0.7306-0.4887,0.9169-0.8725
				c0.3044-0.6284-0.0146-1.3599-0.1511-2.0448c-0.4971-2.4962,2.1556-5.0447,4.6299-4.4481
				c0.1749-1.4733,1.2099-2.8124,2.5915-3.3525c1.3818-0.5398,3.0504-0.2581,4.178,0.7057
				c0.7502-1.7113,2.5371-2.9165,4.4054-2.9706c1.8677-0.0547,3.722,1.0446,4.5703,2.7097c1.6359-0.5167,3.5464-0.0243,4.7281,1.219
				c1.1817,1.2438,1.5768,3.1768,0.9776,4.7841c1.6736,1.192,3.5256,2.7191,3.4818,4.7727
				c-0.0183,0.8624-0.3845,1.6742-0.7438,2.4584c-1.0674,2.3269-2.331,4.8512-4.6913,5.8423
				c-0.4954,0.2077-1.0349,0.3453-1.4528,0.683c-0.4719,0.3822-0.7223,0.9662-1.0622,1.4701
				c-1.3542,2.0082-3.9992,2.6143-6.3984,2.95"/>
			<path class="st2" d="M255.8282,251.2265c0.1535,0.8359,0.003,1.7745-0.5948,2.3778c-0.5984,0.6038-1.6981,0.7185-2.2821,0.1015
				c-0.582,1.1594-1.5897,2.5236-2.8383,2.1702c-0.6211-0.1757-1.0707-0.7591-1.6995-0.9076
				c-1.093-0.2583-2.4475,0.8303-3.2385,0.0327c-0.3949-0.3978-0.378-1.0932-0.8056-1.4554
				c-0.4345-0.3684-1.0985-0.215-1.6404-0.3924c-1.1308-0.3703-1.2719-1.9368-0.9335-3.0771
				c0.0813-0.274,0.1788-0.5599,0.1161-0.8389c-0.1024-0.4557-0.5748-0.7056-0.9315-1.0069
				c-1.3006-1.0988-0.9751-3.5382,0.5683-4.2575c-0.5224-0.8435-0.5388-1.9756-0.0413-2.8339
				c0.4978-0.8586,1.4884-1.4068,2.48-1.3726c-0.3206-1.208,0.1118-2.5836,1.0665-3.3906c0.9548-0.8075,2.3832-1.005,3.5214-0.4875
				c0.6401-0.952,1.8455-1.4909,2.9818-1.3326c1.1366,0.1575,2.1493,1.0049,2.506,2.0954c1.3724-0.0743,2.9776-0.0472,3.811,1.0457
				c0.3494,0.459,0.4969,1.0363,0.6353,1.5966c0.4116,1.662,0.8029,3.5096-0.019,5.0126c-0.1726,0.3151-0.3976,0.6115-0.4753,0.9627
				c-0.088,0.3969,0.0244,0.8066,0.0566,1.2119c0.1287,1.6152-1.0023,3.0348-2.1178,4.2105"/>
			<g>
				<path class="st1" d="M262.6357,220.4304c18.9828,10.6738,17.2521,41.9095,0.3337,53.5262
					c-0.4718,0.3241-1.8864,0.0961-1.1968-0.6353c12.5779-13.3411,17.9224-40.4582,0.3835-52.5269
					C261.8485,220.5827,262.4042,220.3004,262.6357,220.4304L262.6357,220.4304z"/>
			</g>
			<g>
				<path class="st1" d="M255.6497,245.3189c7.1023,0.9523,16.8084,3.66,18.2453,11.9369c0.0622,0.3569-0.6114,0.604-0.7952,0.2916
					c-4.0973-6.9534-9.6977-10.2714-17.5459-12.0221C255.369,245.4838,255.5107,245.3002,255.6497,245.3189L255.6497,245.3189z"/>
			</g>
		</g>
		<g>
			<g>
				<path class="st1" d="M178.3731,362.1898c8.5798-5.7331,12.4159-14.2825,23.4247-15.5531
					c13.9976-1.615,28.0663,11.5746,41.7698,5.7402c0.7303-0.3112,2.0211,0.304,1.0445,1.031
					c-9.0276,6.7211-18.1122,15.3511-29.6486,17.2268c-13.8679,2.2545-23.2085-11.2087-36.3106-8.0215
					c-0.4844,0.1176-0.5992-0.3845-0.1425-0.5447c10.7155-3.7628,12.8585,0.9884,22.7166,5.1557
					c10.593,4.4777,21.0536,0.5302,29.8139-5.5316c1.6204-1.121,9.4073-7.7692,10.1713-6.7982
					c0.2402,0.3051-10.0476-0.1537-10.063-0.1569c-3.8425-0.8118-7.4937-2.5087-11.1873-3.8073
					c-3.6569-1.2853-7.5655-2.6922-11.4395-3.1383c-9.1097-1.049-14.7637,2.3568-21.2611,8.0598
					c-2.9984,2.6317-4.9529,4.8409-8.54,6.682C178.4744,362.6602,178.0471,362.4074,178.3731,362.1898L178.3731,362.1898z"/>
			</g>
			<g>
				<path class="st1" d="M181.2295,361.3891c6.9512-5.9843,15.1523-9.4098,24.435-9.3793
					c6.5725,0.0218,13.1503,1.9563,19.5323,3.2976c7.7538,1.6294,12.2613,0.675,19.2735-2.7677
					c0.1278-0.063,0.348,0.0593,0.1806,0.178c-5.6775,4.031-8.9887,5.6649-15.9506,4.4975
					c-17.4916-2.9341-31.3679-7.3116-47.3936,4.2299C181.2597,361.4787,181.1686,361.4416,181.2295,361.3891L181.2295,361.3891z"/>
			</g>
		</g>
		<g>
			<path class="st2" d="M166.1359,321.0759c-0.3895,1.209-1.2517,2.3383-2.4663,2.71c-1.2147,0.3717-2.7444-0.2551-3.0762-1.4815
				c-1.5873,1.1153-3.8789,2.1992-5.273,0.8501c-0.6939-0.6712-0.8731-1.7571-1.5954-2.3976
				c-1.2567-1.1133-3.8105-0.6384-4.2883-2.2481c-0.2382-0.8031,0.2755-1.7071-0.0311-2.4866
				c-0.3118-0.7931-1.2941-1.0606-1.8821-1.6773c-1.2266-1.2875-0.3043-3.45,0.9484-4.7127
				c0.3001-0.3029,0.6306-0.611,0.7458-1.0223c0.187-0.673-0.2572-1.3354-0.514-1.9847c-0.9353-2.3672,1.2194-5.3488,3.7603-5.2039
				c-0.0911-1.4808,0.6882-2.9835,1.9507-3.7614c1.2631-0.7784,2.9553-0.7992,4.2367-0.0521
				c0.4328-1.8186,1.9751-3.3235,3.8034-3.7108c1.8284-0.3874,3.8488,0.3628,4.9815,1.8497
				c1.5169-0.801,3.4845-0.6573,4.8696,0.3545c1.3851,1.0124,2.1187,2.8441,1.8163,4.5321c1.86,0.8734,3.9551,2.0453,4.2792,4.0742
				c0.1359,0.8516-0.0791,1.7159-0.2928,2.5516c-0.6339,2.48-1.4264,5.1897-3.5716,6.586c-0.4503,0.2939-0.9565,0.5247-1.307,0.9322
				c-0.3964,0.4602-0.5383,1.0796-0.7829,1.636c-0.9732,2.218-3.4671,3.2875-5.7676,4.0458"/>
			<path class="st2" d="M162.5636,345.0373c0.3001,0.7947,0.3196,1.7453-0.1607,2.4459c-0.4803,0.7011-1.5426,1.0103-2.227,0.5071
				c-0.3658,1.2451-1.113,2.7676-2.4048,2.6429c-0.643-0.062-1.1895-0.5556-1.8346-0.5894
				c-1.1213-0.0588-2.2596,1.2542-3.1805,0.611c-0.4591-0.3209-0.5676-1.0082-1.053-1.288
				c-0.4935-0.2849-1.1189-0.0155-1.6839-0.0929c-1.1785-0.1626-1.597-1.6783-1.4684-2.8613
				c0.031-0.2835,0.0753-0.5827-0.0359-0.8457c-0.1821-0.43-0.6908-0.5916-1.0958-0.8245c-1.4762-0.8486-1.592-3.3067-0.202-4.2902
				c-0.6649-0.7368-0.8833-1.8475-0.5471-2.7812c0.3362-0.9337,1.2127-1.6502,2.195-1.7935
				c-0.5317-1.1314-0.3518-2.5621,0.4435-3.5268c0.795-0.9645,2.1647-1.4142,3.3773-1.1089
				c0.4596-1.0509,1.5489-1.7964,2.6958-1.8441c1.1461-0.0479,2.2939,0.6046,2.8396,1.6138
				c1.3371-0.3183,2.9214-0.5786,3.9369,0.3482c0.4262,0.3887,0.6738,0.9305,0.9104,1.4571c0.7021,1.5619,1.4171,3.31,0.8769,4.935
				c-0.1133,0.3411-0.282,0.673-0.2957,1.0323c-0.0155,0.4063,0.1684,0.7893,0.2724,1.1819c0.4153,1.567-0.4439,3.1658-1.331,4.5217
				"/>
			<g>
				<path class="st1" d="M163.734,313.5277c20.3901,7.0992,24.786,38.2143,9.9961,52.5681
					c-0.4943,0.4795-1.9214,0.3988-1.3351-0.5048c9.9386-15.3143,10.3996-42.9566-9.0197-51.6352
					C163.0042,313.7899,163.4659,313.4344,163.734,313.5277L163.734,313.5277z"/>
			</g>
			<g>
				<path class="st1" d="M161.3152,339.2619c7.1851-0.3337,17.2278,0.6503,20.1275,8.5515c0.1405,0.3823-0.594,0.5273-0.7952,0.2915
					c-5.2504-6.1483-11.3928-8.3524-19.3921-8.6354C161.0863,339.4636,161.1906,339.2679,161.3152,339.2619L161.3152,339.2619z"/>
			</g>
		</g>
		<g>
			<path class="st2" d="M351.6448,227.7543c-0.9907,0.7952-1.7381,2.004-1.6519,3.2712c0.0862,1.2672,1.2183,2.4724,2.4818,2.3451
				c-0.4754,1.8806-0.6694,4.4079,1.0876,5.229c0.8753,0.4081,1.9535,0.188,2.8098,0.6346
				c1.4882,0.7766,1.9559,3.3312,3.6304,3.2028c0.8348-0.064,1.4963-0.8661,2.3339-0.8581
				c0.8518,0.0079,1.4526,0.8309,2.2386,1.1597c1.6404,0.6862,3.3314-0.947,4.064-2.5678c0.1758-0.3886,0.3454-0.8077,0.6889-1.0615
				c0.5609-0.4155,1.3389-0.2365,2.0376-0.2288c2.5448,0.0286,4.5609-3.0479,3.519-5.3698
				c1.4157-0.4434,2.5409-1.7071,2.8173-3.1649c0.2761-1.4575-0.3083-3.0457-1.4633-3.9764c1.544-1.0527,2.3991-3.031,2.1084-4.877
				c-0.2908-1.846-1.7125-3.4657-3.5052-3.9936c0.2066-1.7026-0.6297-3.4898-2.0693-4.4221
				c-1.4396-0.9323-3.4128-0.9647-4.8818-0.0793c-1.4799-1.4256-3.3219-2.9649-5.3334-2.5434
				c-0.8436,0.177-1.5741,0.6867-2.2785,1.1844c-2.0906,1.477-4.3392,3.1848-4.8784,5.6873
				c-0.1129,0.5249-0.1487,1.0805-0.4037,1.5531c-0.2886,0.5352-0.8163,0.8883-1.2487,1.3151
				c-1.7249,1.701-1.8335,4.4122-1.7211,6.8321"/>
			<path class="st2" d="M330.5361,239.6432c-0.8498,0.003-1.7445,0.3242-2.2278,1.0232c-0.4833,0.6989-0.3935,1.8011,0.3211,2.2615
				c-1.0328,0.7855-2.1878,2.0269-1.6106,3.1892c0.2877,0.5786,0.944,0.9129,1.2055,1.5034
				c0.4548,1.0267-0.3651,2.5584,0.5644,3.1894c0.4635,0.3144,1.1439,0.1702,1.5789,0.5234c0.4423,0.3596,0.4135,1.04,0.6878,1.5399
				c0.5724,1.0432,2.1378,0.8935,3.1969,0.3507c0.2539-0.1303,0.5174-0.2784,0.8025-0.2683
				c0.4669,0.0167,0.7996,0.4347,1.1616,0.7299c1.3194,1.0758,3.6568,0.3064,4.0797-1.3427c0.9256,0.358,2.0411,0.166,2.7933-0.4816
				c0.7525-0.6472,1.1086-1.7221,0.8922-2.6906c1.2467,0.0929,2.5187-0.5856,3.1358-1.6729c0.618-1.0869,0.549-2.5272-0.1697-3.5505
				c0.8185-0.8047,1.1257-2.0886,0.7612-3.1765c-0.3651-1.088-1.3838-1.9271-2.5215-2.0767
				c-0.1797-1.3624-0.5021-2.9355-1.7299-3.5535c-0.5153-0.2594-1.11-0.297-1.6856-0.3303
				c-1.7099-0.0979-3.5982-0.1427-4.9235,0.9424c-0.2783,0.2278-0.5281,0.5033-0.8589,0.6443
				c-0.3741,0.1593-0.7974,0.1241-1.2016,0.1674c-1.6113,0.1712-2.7981,1.5443-3.7486,2.8572"/>
			<g>
				<path class="st1" d="M359.1318,227.6857c-14.5623-14.4111-40.0688-5.8788-51.6143,7.9905
					c-0.3613,0.4342-1.8337,0.4664-1.4295-0.3576c8.6548-17.6434,40.678-23.5198,53.6137-7.9079
					C359.9183,227.6717,359.3255,227.8772,359.1318,227.6857L359.1318,227.6857z"/>
			</g>
			<g>
				<path class="st1" d="M336.145,238.8328c-3.1598-7.2065-7.4381-12.6153-15.1324-15.1229
					c-0.5134-0.1671,0.1028-0.6048,0.3819-0.5948c8.4706,0.2986,12.8087,8.5138,15.0273,15.6453
					C336.4632,238.8931,336.1985,238.9545,336.145,238.8328L336.145,238.8328z"/>
			</g>
		</g>
		<g>
			<g>
				<path class="st1" d="M223.6285,308.7477c-0.3268-5.5943,2.1823-9.7822,3.1706-15.1495
					c1.4719-7.9939-1.4271-14.9051-6.5749-20.9586c-4.4086-5.185-10.2675-8.8857-14.6815-14.0327
					c-1.235-1.4401-4.0151-8.8718-4.9701-9.522c2.5888,1.763-0.6618,12.3766-0.8886,15.9248
					c-0.5201,8.1236,0.8431,16.3093,6.1759,22.7613c7.4232,8.9823,16.9733,7.8254,18.4701,20.8566
					c0.0419,0.3664-0.6622,0.5738-0.7668,0.2007c-1.3866-4.9254-2.4441-7.8547-6.6416-11.0122
					c-2.321-1.746-4.7991-2.5341-7.2436-3.9454c-4.1825-2.4146-7.295-6.0486-9.3639-10.404
					c-5.4752-11.5271-1.65-24.8565,0.1362-36.7893c0.1302-0.8678,1.8498-1.1327,1.9077-0.1197
					c0.8314,14.6057,18.4958,20.6161,24.2229,33.2014c4.7974,10.5429-1.1552,18.4137-2.3165,28.9487
					C224.2321,309.0012,223.6479,309.0823,223.6285,308.7477L223.6285,308.7477z"/>
			</g>
			<g>
				<path class="st1" d="M223.4362,305.9271c1.8524-14.1739-2.9457-25.1757-11.9468-35.8047
					c-7.2723-8.5873-11.959-12.6833-10.2337-24.1343c0.0226-0.1503,0.3187-0.1955,0.3299-0.0206
					c0.471,7.5232,1.2074,11.7019,6.2357,17.701c4.0073,4.7816,8.5222,9.4247,11.7673,14.7729
					c5.1399,8.4703,6.2777,17.9455,3.9656,27.4781C223.5419,305.9696,223.4281,305.99,223.4362,305.9271L223.4362,305.9271z"/>
			</g>
		</g>
		<g>
			<path class="st2" d="M255.0498,307.2754c-0.8462,0.9473-1.3843,2.2625-1.091,3.4983c0.2936,1.2354,1.6082,2.2383,2.8339,1.9045
				c-0.1595,1.9333,0.0646,4.4579,1.9333,4.9784c0.9304,0.2594,1.958-0.1355,2.876,0.1641c1.5959,0.5209,2.4775,2.9644,4.1073,2.562
				c0.8133-0.2006,1.3339-1.1009,2.1611-1.2307c0.8419-0.1324,1.5693,0.5802,2.3988,0.775
				c1.7312,0.4072,3.1308-1.4819,3.5862-3.2012c0.1093-0.4126,0.2079-0.8535,0.5052-1.1604
				c0.4849-0.502,1.2818-0.4537,1.9721-0.5606c2.5148-0.3908,3.9969-3.757,2.5869-5.8758c1.3233-0.6703,2.2256-2.1026,2.2582-3.5854
				s-0.8047-2.9537-2.0978-3.6813c1.35-1.2925,1.8683-3.3851,1.2774-5.1581c-0.5906-1.7727-2.2595-3.1365-4.1147-3.3617
				c-0.0765-1.7134-1.1954-3.3387-2.7692-4.0216c-1.5729-0.6826-3.5243-0.3897-4.8283,0.725
				c-1.6939-1.1624-3.7645-2.3775-5.6786-1.6304c-0.8033,0.3133-1.44,0.9358-2.0525,1.5428
				c-1.8195,1.8013-3.7562,3.8553-3.8764,6.412c-0.0251,0.5369,0.0314,1.0907-0.1424,1.5994
				c-0.1969,0.5744-0.6595,1.0104-1.0158,1.5019c-1.4213,1.962-1.0821,4.6541-0.5731,7.0225"/>
			<path class="st2" d="M236.1852,322.4755c-0.8376,0.1429-1.6673,0.6071-2.0289,1.3759c-0.3615,0.7688-0.0914,1.8414,0.6889,2.1777
				c-0.8891,0.9452-1.8246,2.3596-1.0638,3.4109c0.3789,0.5233,1.0808,0.7451,1.4364,1.2842
				c0.6177,0.9382,0.0606,2.5841,1.0816,3.0531c0.509,0.2336,1.1562-0.0202,1.6432,0.2571
				c0.4958,0.2814,0.5793,0.9575,0.9322,1.4051c0.7359,0.9347,2.2556,0.5294,3.2107-0.1797c0.2289-0.1705,0.4646-0.36,0.7478-0.3969
				c0.4631-0.0608,0.8601,0.2972,1.2655,0.5287c1.4789,0.8436,3.6581-0.2997,3.8032-1.9959c0.972,0.201,2.041-0.1726,2.6759-0.9345
				c0.6358-0.7626,0.8098-1.8812,0.4372-2.8008c1.2452-0.1136,2.3882-0.9924,2.8182-2.166
				c0.4306-1.1742,0.1253-2.5832-0.7514-3.4743c0.6747-0.9284,0.7663-2.2452,0.228-3.2586
				c-0.5392-1.0132-1.6822-1.6731-2.8291-1.6334c-0.4017-1.3145-0.9786-2.8131-2.2915-3.2203
				c-0.5506-0.171-1.1435-0.1104-1.7168-0.0482c-1.7028,0.1844-3.5723,0.4516-4.7013,1.7392
				c-0.237,0.2703-0.438,0.5835-0.741,0.7771c-0.3428,0.219-0.7663,0.254-1.1581,0.3627c-1.561,0.4339-2.5059,1.9839-3.2266,3.4352"
				/>
			<g>
				<path class="st1" d="M262.4425,305.975c-16.641-11.7962-40.4694,0.7321-49.5523,16.3416
					c-0.2624,0.4504-1.8024,0.7659-1.5694-0.0548c5.387-18.9406,36.3848-29.7688,51.6013-16.6509
					C263.2026,305.853,262.67,306.1365,262.4425,305.975L262.4425,305.975z"/>
			</g>
			<g>
				<path class="st1" d="M241.588,320.7558c-4.2688-6.5273-9.4163-11.3215-17.3723-12.4404
					c-0.5267-0.0739-0.1749-0.5822,0.1792-0.6226c8.4498-0.9594,14.0203,6.1842,17.4464,12.9411
					C241.9077,320.7651,241.6594,320.8653,241.588,320.7558L241.588,320.7558z"/>
			</g>
		</g>
		<g>
			<path class="st2" d="M175.2703,401.2301c-0.1794,1.2578,0.1019,2.6505,1.0309,3.5166c0.9297,0.8656,2.5797,0.9712,3.415,0.0143
				c0.9386,1.6971,2.5248,3.6743,4.3687,3.072c0.9175-0.2997,1.5541-1.198,2.4841-1.4573c1.6171-0.4509,3.7056,1.0936,4.8388-0.1443
				c0.5657-0.6179,0.5002-1.6556,1.1168-2.2223c0.6275-0.5767,1.6278-0.3869,2.4266-0.6841
				c1.6667-0.6208,1.7837-2.9689,1.2107-4.6524c-0.1381-0.404-0.3006-0.8259-0.2233-1.2458
				c0.1254-0.687,0.8157-1.0882,1.3306-1.5597c1.8766-1.7191,1.2445-5.3429-1.1036-6.3251c0.7303-1.2912,0.6871-2.983-0.1077-4.2357
				c-0.7945-1.2524-2.3069-2.0118-3.7864-1.9013c0.4071-1.8239-0.3214-3.8526-1.7955-5.0009
				c-1.4744-1.1482-3.6194-1.3582-5.2884-0.5176c-1.0132-1.384-2.8452-2.1164-4.5337-1.8123
				c-1.6882,0.3038-3.1501,1.6293-3.6168,3.2797c-2.0545-0.0288-4.4513,0.108-5.6304,1.7904
				c-0.4949,0.7057-0.6801,1.5771-0.8539,2.4218c-0.5152,2.5077-0.9888,5.2907,0.3287,7.4858
				c0.2762,0.4603,0.6301,0.8901,0.7671,1.4094c0.1549,0.5873,0.0116,1.2069-0.0124,1.8136
				c-0.0952,2.4207,1.6786,4.4733,3.4152,6.1629"/>
			<g>
				<path class="st1" d="M180.7748,396.0008c-20.9733-0.508-32.6546,23.415-32.1437,41.4011
					c0.0194,0.6848-1.3941,0.9222-1.6029,0.2589c-6.0256-19.1414,13.8393-44.1794,33.8807-42.1271
					C181.2828,395.5722,181.0657,396.0079,180.7748,396.0008L180.7748,396.0008z"/>
			</g>
		</g>
	</g>
</g>
</svg>
